<?xml version="1.0" encoding="UTF-8" standalone="no"?>
<!DOCTYPE svg PUBLIC "-//W3C//DTD SVG 1.1//EN" "http://www.w3.org/Graphics/SVG/1.1/DTD/svg11.dtd">
<svg width="100%" height="100%" viewBox="0 0 1280 800" version="1.1" xmlns="http://www.w3.org/2000/svg" xmlns:xlink="http://www.w3.org/1999/xlink" xml:space="preserve" xmlns:serif="http://www.serif.com/" style="fill-rule:evenodd;clip-rule:evenodd;stroke-linejoin:round;stroke-miterlimit:1.41421;">
    <g transform="matrix(1,0,0,1,-216,-17)">
        <path d="M459.669,373.34L389.109,373.34L389.109,183.26L497.973,183.26C508.725,183.26 519.333,184.364 529.797,186.572C540.261,188.78 549.621,192.476 557.877,197.66C566.133,202.844 572.757,209.804 577.749,218.54C582.741,227.276 585.237,238.268 585.237,251.516C585.237,263.228 582.741,272.972 577.749,280.748C572.757,288.524 566.181,294.716 558.021,299.324C549.861,303.932 540.549,307.148 530.085,308.972C519.621,310.796 508.917,311.708 497.973,311.708L459.669,311.708L459.669,373.34ZM460.245,228.476L460.245,266.204L486.453,266.204C503.925,266.204 516.021,264.716 522.741,261.74C529.461,258.764 532.821,253.436 532.821,245.756C532.821,243.26 532.149,240.956 530.805,238.844C529.461,236.732 527.013,234.908 523.461,233.372C519.909,231.836 515.109,230.636 509.061,229.772C503.013,228.908 495.285,228.476 485.877,228.476L460.245,228.476Z" style="fill-rule:nonzero;"/>
        <path d="M667.605,373.628L597.045,373.628L597.045,183.548L705.909,183.548C716.661,183.548 727.269,184.652 737.733,186.86C748.197,189.068 757.557,192.812 765.813,198.092C774.069,203.372 780.741,210.332 785.829,218.972C790.917,227.612 793.365,238.268 793.173,250.94C792.981,261.308 791.973,269.9 790.149,276.716C788.325,283.532 786.021,289.196 783.237,293.708C780.453,298.22 777.381,301.82 774.021,304.508C770.661,307.196 767.541,309.5 764.661,311.42L756.597,314.012C756.981,315.356 757.173,316.94 757.173,318.764C757.173,320.588 758.805,322.268 762.069,323.804C765.333,325.34 770.997,326.636 779.061,327.692C787.125,328.748 799.221,329.276 815.349,329.276L815.349,374.492L755.733,374.492C745.173,372.188 735.813,368.876 727.653,364.556C719.493,360.236 711.957,355.244 705.045,349.58C698.133,343.916 691.653,337.82 685.605,331.292C679.557,324.764 673.557,318.332 667.605,311.996L667.605,373.628ZM668.181,233.66L668.181,271.388L694.389,271.388C711.861,271.388 723.957,269.9 730.677,266.924C737.397,263.948 740.757,258.62 740.757,250.94C740.757,248.444 740.085,246.14 738.741,244.028C737.397,241.916 734.949,240.092 731.397,238.556C727.845,237.02 723.045,235.82 716.997,234.956C710.949,234.092 703.221,233.66 693.813,233.66L668.181,233.66Z" style="fill-rule:nonzero;"/>
        <rect x="826.869" y="183.836" width="65.376" height="189.792" style="fill-rule:nonzero;"/>
        <path d="M1071.67,333.02L1071.67,377.084L1013.78,377.084C996.885,377.084 981.621,374.924 967.989,370.604C954.357,366.284 942.789,359.948 933.285,351.596C923.781,343.244 916.485,332.924 911.397,320.636C906.309,308.348 903.765,294.236 903.765,278.3C903.765,247.004 913.077,222.86 931.701,205.868C950.325,188.876 976.629,180.38 1010.61,180.38L1071.67,180.38L1071.67,224.444L1012.05,224.444C1003.41,225.212 996.597,226.748 991.605,229.052C986.613,231.356 982.101,235.196 978.069,240.572C972.309,248.636 969.429,261.02 969.429,277.724C969.429,293.852 972.453,306.812 978.501,316.604C984.549,326.396 994.965,331.868 1009.75,333.02L1071.67,333.02Z" style="fill-rule:nonzero;"/>
        <path d="M1083.19,375.356L1083.19,183.548L1258.29,183.548L1258.29,230.204L1148.85,230.204L1148.85,258.14L1250.23,258.14L1250.23,300.188L1148.85,300.188L1148.85,328.124L1283.92,328.124L1283.92,375.356L1083.19,375.356Z" style="fill-rule:nonzero;"/>
    </g>
    <g transform="matrix(1.017,0,0,1,-231.655,195)">
        <path d="M450.214,373.628L397.222,183.836L462.886,183.836L486.214,270.812L505.51,183.836L582.694,183.836L604.582,270.812L627.046,183.836L692.134,183.836L642.598,373.628L568.294,373.628L546.118,284.06L525.958,373.628L450.214,373.628Z" style="fill-rule:nonzero;"/>
        <path d="M823.174,373.628L811.366,339.644L742.534,339.644L732.742,373.628L663.334,373.628L715.174,183.836L839.878,183.836L893.158,373.628L823.174,373.628ZM753.766,298.46L803.302,298.46L776.806,223.58L753.766,298.46Z" style="fill-rule:nonzero;"/>
        <path d="M975.238,373.628L904.678,373.628L904.678,183.548L1013.54,183.548C1024.29,183.548 1034.9,184.652 1045.37,186.86C1055.83,189.068 1065.19,192.812 1073.45,198.092C1081.7,203.372 1088.37,210.332 1093.46,218.972C1098.55,227.612 1101,238.268 1100.81,250.94C1100.61,261.308 1099.61,269.9 1097.78,276.716C1095.96,283.532 1093.65,289.196 1090.87,293.708C1088.09,298.22 1085.01,301.82 1081.65,304.508C1078.29,307.196 1075.17,309.5 1072.29,311.42L1064.23,314.012C1064.61,315.356 1064.81,316.94 1064.81,318.764C1064.81,320.588 1066.44,322.268 1069.7,323.804C1072.97,325.34 1078.63,326.636 1086.69,327.692C1094.76,328.748 1106.85,329.276 1122.98,329.276L1122.98,374.492L1063.37,374.492C1052.81,372.188 1043.45,368.876 1035.29,364.556C1027.13,360.236 1019.59,355.244 1012.68,349.58C1005.77,343.916 999.286,337.82 993.238,331.292C987.19,324.764 981.19,318.332 975.238,311.996L975.238,373.628ZM975.814,233.66L975.814,271.388L1002.02,271.388C1019.49,271.388 1031.59,269.9 1038.31,266.924C1045.03,263.948 1048.39,258.62 1048.39,250.94C1048.39,248.444 1047.72,246.14 1046.37,244.028C1045.03,241.916 1042.58,240.092 1039.03,238.556C1035.48,237.02 1030.68,235.82 1024.63,234.956C1018.58,234.092 1010.85,233.66 1001.45,233.66L975.814,233.66Z" style="fill-rule:nonzero;"/>
        <path d="M1059.62,375.356L1059.62,329.564L1155.53,329.564C1159.37,328.412 1162.15,327.308 1163.88,326.252C1165.61,325.196 1165.65,322.316 1164.02,317.612C1162.39,312.908 1158.69,305.276 1152.93,294.716C1147.17,284.156 1138.63,268.796 1127.3,248.636C1123.08,239.996 1120.87,231.692 1120.68,223.724C1120.49,215.756 1122.21,208.796 1125.86,202.844C1129.51,196.892 1135.08,192.14 1142.57,188.588C1150.05,185.036 1159.56,183.26 1171.08,183.26L1277.35,182.972L1277.35,229.628L1206.79,229.628C1202.76,229.436 1200.41,230.156 1199.73,231.788C1199.06,233.42 1200.26,237.02 1203.33,242.588C1206.41,248.156 1211.45,256.268 1218.45,266.924C1225.46,277.58 1234.73,291.74 1246.25,309.404C1250.09,314.396 1252.82,320.636 1254.45,328.124C1256.09,335.612 1255.7,342.86 1253.3,349.868C1250.9,356.876 1245.96,362.876 1238.47,367.868C1230.98,372.86 1220.04,375.356 1205.64,375.356L1059.62,375.356Z" style="fill-rule:nonzero;"/>
    </g>
</svg>
