<?xml version="1.0" encoding="UTF-8" standalone="no"?>
<!DOCTYPE svg PUBLIC "-//W3C//DTD SVG 1.1//EN" "http://www.w3.org/Graphics/SVG/1.1/DTD/svg11.dtd">
<svg width="100%" height="100%" viewBox="0 0 800 361" version="1.1" xmlns="http://www.w3.org/2000/svg" xmlns:xlink="http://www.w3.org/1999/xlink" xml:space="preserve" xmlns:serif="http://www.serif.com/" style="fill-rule:evenodd;clip-rule:evenodd;stroke-linejoin:round;stroke-miterlimit:1.41421;">
    <g transform="matrix(0.625,0,0,0.625,-122,-57.625)">
        <path d="M313.117,373.228L215.117,373.228L215.117,109.228L366.317,109.228C381.251,109.228 395.984,110.761 410.517,113.828C425.051,116.894 438.051,122.028 449.517,129.228C460.984,136.428 470.184,146.094 477.117,158.228C484.051,170.361 487.517,185.628 487.517,204.028C487.517,220.294 484.051,233.828 477.117,244.628C470.184,255.428 461.051,264.028 449.717,270.428C438.384,276.828 425.451,281.294 410.917,283.828C396.384,286.361 381.517,287.628 366.317,287.628L313.117,287.628L313.117,373.228ZM313.917,172.028L313.917,224.428L350.317,224.428C374.584,224.428 391.384,222.361 400.717,218.228C410.051,214.094 414.717,206.694 414.717,196.028C414.717,192.561 413.784,189.361 411.917,186.428C410.051,183.494 406.651,180.961 401.717,178.828C396.784,176.694 390.117,175.028 381.717,173.828C373.317,172.628 362.584,172.028 349.517,172.028L313.917,172.028Z" style="fill-rule:nonzero;"/>
        <path d="M601.917,373.628L503.917,373.628L503.917,109.628L655.117,109.628C670.051,109.628 684.784,111.161 699.317,114.228C713.851,117.294 726.851,122.494 738.317,129.828C749.784,137.161 759.051,146.828 766.117,158.828C773.184,170.828 776.584,185.628 776.317,203.228C776.051,217.628 774.651,229.561 772.117,239.028C769.584,248.494 766.384,256.361 762.517,262.628C758.651,268.894 754.384,273.894 749.717,277.628C745.051,281.361 740.717,284.561 736.717,287.228L725.517,290.828C726.051,292.694 726.317,294.894 726.317,297.428C726.317,299.961 728.584,302.294 733.117,304.428C737.651,306.561 745.517,308.361 756.717,309.828C767.917,311.294 784.717,312.028 807.117,312.028L807.117,374.828L724.317,374.828C709.651,371.628 696.651,367.028 685.317,361.028C673.984,355.028 663.517,348.094 653.917,340.228C644.317,332.361 635.317,323.894 626.917,314.828C618.517,305.761 610.184,296.828 601.917,288.028L601.917,373.628ZM602.717,179.228L602.717,231.628L639.117,231.628C663.384,231.628 680.184,229.561 689.517,225.428C698.851,221.294 703.517,213.894 703.517,203.228C703.517,199.761 702.584,196.561 700.717,193.628C698.851,190.694 695.451,188.161 690.517,186.028C685.584,183.894 678.917,182.228 670.517,181.028C662.117,179.828 651.384,179.228 638.317,179.228L602.717,179.228Z" style="fill-rule:nonzero;"/>
        <rect x="823.117" y="110.028" width="90.8" height="263.6" style="fill-rule:nonzero;"/>
        <path d="M1163.12,317.228L1163.12,378.428L1082.72,378.428C1059.25,378.428 1038.05,375.428 1019.12,369.428C1000.18,363.428 984.117,354.628 970.917,343.028C957.717,331.428 947.584,317.094 940.517,300.028C933.451,282.961 929.917,263.361 929.917,241.228C929.917,197.761 942.851,164.228 968.717,140.628C994.584,117.028 1031.12,105.228 1078.32,105.228L1163.12,105.228L1163.12,166.428L1080.32,166.428C1068.32,167.494 1058.85,169.628 1051.92,172.828C1044.98,176.028 1038.72,181.361 1033.12,188.828C1025.12,200.028 1021.12,217.228 1021.12,240.428C1021.12,262.828 1025.32,280.828 1033.72,294.428C1042.12,308.028 1056.58,315.628 1077.12,317.228L1163.12,317.228Z" style="fill-rule:nonzero;"/>
        <path d="M1179.12,376.028L1179.12,109.628L1422.32,109.628L1422.32,174.428L1270.32,174.428L1270.32,213.228L1411.12,213.228L1411.12,271.628L1270.32,271.628L1270.32,310.428L1457.92,310.428L1457.92,376.028L1179.12,376.028Z" style="fill-rule:nonzero;"/>
    </g>
    <g transform="matrix(0.635625,0,0,0.625,-131.945,121.875)">
        <path d="M299.985,373.628L226.385,110.028L317.585,110.028L349.985,230.828L376.785,110.028L483.985,110.028L514.385,230.828L545.585,110.028L635.985,110.028L567.185,373.628L463.985,373.628L433.185,249.228L405.185,373.628L299.985,373.628Z" style="fill-rule:nonzero;"/>
        <path d="M817.985,373.628L801.585,326.428L705.985,326.428L692.385,373.628L595.985,373.628L667.985,110.028L841.185,110.028L915.185,373.628L817.985,373.628ZM721.585,269.228L790.385,269.228L753.585,165.228L721.585,269.228Z" style="fill-rule:nonzero;"/>
        <path d="M1029.18,373.628L931.185,373.628L931.185,109.628L1082.38,109.628C1097.32,109.628 1112.05,111.161 1126.59,114.228C1141.12,117.294 1154.12,122.494 1165.59,129.828C1177.05,137.161 1186.32,146.828 1193.38,158.828C1200.45,170.828 1203.85,185.628 1203.59,203.228C1203.32,217.628 1201.92,229.561 1199.38,239.028C1196.85,248.494 1193.65,256.361 1189.79,262.628C1185.92,268.894 1181.65,273.894 1176.99,277.628C1172.32,281.361 1167.99,284.561 1163.99,287.228L1152.79,290.828C1153.32,292.694 1153.59,294.894 1153.59,297.428C1153.59,299.961 1155.85,302.294 1160.38,304.428C1164.92,306.561 1172.79,308.361 1183.99,309.828C1195.18,311.294 1211.99,312.028 1234.38,312.028L1234.38,374.828L1151.59,374.828C1136.92,371.628 1123.92,367.028 1112.59,361.028C1101.25,355.028 1090.79,348.094 1081.18,340.228C1071.59,332.361 1062.59,323.894 1054.18,314.828C1045.79,305.761 1037.45,296.828 1029.18,288.028L1029.18,373.628ZM1029.99,179.228L1029.99,231.628L1066.38,231.628C1090.65,231.628 1107.45,229.561 1116.79,225.428C1126.12,221.294 1130.79,213.894 1130.79,203.228C1130.79,199.761 1129.85,196.561 1127.99,193.628C1126.12,190.694 1122.72,188.161 1117.79,186.028C1112.85,183.894 1106.18,182.228 1097.79,181.028C1089.38,179.828 1078.65,179.228 1065.59,179.228L1029.99,179.228Z" style="fill-rule:nonzero;"/>
        <path d="M1146.38,376.028L1146.38,312.428L1279.59,312.428C1284.92,310.828 1288.79,309.294 1291.18,307.828C1293.59,306.361 1293.65,302.361 1291.38,295.828C1289.12,289.294 1283.99,278.694 1275.99,264.028C1267.99,249.361 1256.12,228.028 1240.38,200.028C1234.52,188.028 1231.45,176.494 1231.18,165.428C1230.92,154.361 1233.32,144.694 1238.38,136.428C1243.45,128.161 1251.18,121.561 1261.59,116.628C1271.99,111.694 1285.18,109.228 1301.18,109.228L1448.79,108.828L1448.79,173.628L1350.79,173.628C1345.18,173.361 1341.92,174.361 1340.99,176.628C1340.05,178.894 1341.72,183.894 1345.99,191.628C1350.25,199.361 1357.25,210.628 1366.99,225.428C1376.72,240.228 1389.59,259.894 1405.59,284.428C1410.92,291.361 1414.72,300.028 1416.99,310.428C1419.25,320.828 1418.72,330.894 1415.38,340.628C1412.05,350.361 1405.18,358.694 1394.79,365.628C1384.38,372.561 1369.18,376.028 1349.18,376.028L1146.38,376.028Z" style="fill-rule:nonzero;"/>
    </g>
</svg>
